<svg xmlns="http://www.w3.org/2000/svg" xmlns:xlink="http://www.w3.org/1999/xlink" width="101.43" height="16.69" viewBox="0 0 101.43 16.69"><defs><style>.cls-1{fill:#fff;}.cls-2{mask:url(#mask);}</style><mask id="mask" x="-595.27" y="-36.45" width="728" height="90" maskUnits="userSpaceOnUse"><rect class="cls-1" x="-595.27" y="-36.45" width="728" height="90"/></mask></defs><title>cta1</title><g id="Layer_2" data-name="Layer 2"><g class="cls-2"><g id="Layer_18" data-name="Layer 18"><path class="cls-1" d="M.72,6.75C.72,2.61,3.35,0,7.29,0a5.54,5.54,0,0,1,5.33,3L10.55,4.1A3.42,3.42,0,0,0,7.26,2.21c-2.34,0-3.91,1.67-3.91,4.47s1.4,4.38,3.71,4.38A3.28,3.28,0,0,0,10.64,8H7.38v-2H13.2V7.36A5.78,5.78,0,0,1,7,13.29C3.12,13.29.72,10.75.72,6.75Z"/><path class="cls-1" d="M21.66,10.39l1,1.58a6.35,6.35,0,0,1-3.87,1.33,4.32,4.32,0,0,1-4.52-4.59A4.59,4.59,0,0,1,19,3.85c2,0,3.78,1.1,3.78,3.13,0,1.37-.79,2.58-2.83,2.58H16.56a2.16,2.16,0,0,0,2.38,1.78A4.83,4.83,0,0,0,21.66,10.39ZM16.51,7.9h2.88c.74,0,1.13-.41,1.13-1s-.61-1.21-1.58-1.21A2.46,2.46,0,0,0,16.51,7.9Z"/><path class="cls-1" d="M30.93,12.37a4.47,4.47,0,0,1-2.83.92c-2,0-3.08-1.22-3.08-3.3V5.78H23.67V4.09H25V1.3h2.45V4.09h2.92V5.78H27.47v4a1.17,1.17,0,0,0,1.24,1.33,2.76,2.76,0,0,0,1.44-.49Z"/><path class="cls-1" d="M39,2.41v3h5.33V7.63H39v3.26h5.76v2.2H36.4V.23h8.52V2.41Z"/><path class="cls-1" d="M54.33,7.6v5.49H52.17V11.92a3.47,3.47,0,0,1-2.92,1.39,2.78,2.78,0,0,1-3.1-2.79c0-2.21,2.11-3,4.39-3a10.53,10.53,0,0,1,1.53.11V7.53c0-1.17-.79-1.73-1.91-1.73a4.52,4.52,0,0,0-2.74,1l-1-1.53a5.88,5.88,0,0,1,4-1.44C52.72,3.85,54.33,5.19,54.33,7.6Zm-2.25,1.5c-.47,0-.92-.05-1.35-.05-1.17,0-2.14.34-2.14,1.31a1.13,1.13,0,0,0,1.26,1.13A2.27,2.27,0,0,0,52.08,9.09Z"/><path class="cls-1" d="M55.67,11.92l1-1.55a4.43,4.43,0,0,0,2.68,1.06c.76,0,1.4-.31,1.4-.88s-1-.92-1.95-1.24c-1.44-.49-2.61-1.12-2.61-2.63,0-1.82,1.57-2.83,3.64-2.83a5.9,5.9,0,0,1,3.38,1l-.94,1.53a4.63,4.63,0,0,0-2.34-.76c-.81,0-1.31.34-1.31.81s.76.83,1.59,1.1c1.47.49,3.1,1,3.1,2.83s-1.82,2.88-3.85,2.88A5.46,5.46,0,0,1,55.67,11.92Z"/><path class="cls-1" d="M73,4.09l-3.69,9.24c-.61,1.53-1.6,3.37-3.67,3.37a3.23,3.23,0,0,1-2.18-.81l.86-1.69a1.85,1.85,0,0,0,1.19.43c.72,0,1.15-.45,1.51-1.28l.23-.58L63.85,4.09h2.52l2.13,6,2.05-6Z"/><path class="cls-1" d="M90.35.23,87.21,13.09H84L81.87,5.31l-2.09,7.78H76.54L73.44.23h2.72l2.14,10L80.7,1.66h2.39l2.43,8.66L87.72.23Z"/><path class="cls-1" d="M101.43,4.46c0,2.72-1.62,4.25-4.61,4.25H94.64v4.38H92.05V.23h5A4,4,0,0,1,101.43,4.46Zm-2.61,0a1.9,1.9,0,0,0-2.11-2.05H94.64V6.55h2.09A1.84,1.84,0,0,0,98.82,4.45Z"/><path class="cls-1" d="M0,15.34v-.9H101.38v.9Z"/></g></g></g></svg>