<svg xmlns="http://www.w3.org/2000/svg" xmlns:xlink="http://www.w3.org/1999/xlink" width="29.12" height="30" viewBox="0 0 29.12 30"><defs><style>.cls-1{fill:#fff;}.cls-2{mask:url(#mask);}</style><mask id="mask" x="-29" y="-31.31" width="728" height="90" maskUnits="userSpaceOnUse"><rect class="cls-1" x="-29" y="-31.31" width="728" height="90"/></mask></defs><title>logo</title><g id="Layer_2" data-name="Layer 2"><g class="cls-2"><g id="Layer_17" data-name="Layer 17"><path class="cls-1" d="M28,16.77a1,1,0,0,0-.55.14c-1,1.74-2,2.51-3.55,2.51a2.87,2.87,0,0,1-2.81-1.6c1.62-3,2.74-5.52,2.74-8.93C23.83,3,20.49,0,14.56,0S5.29,3,5.29,8.89c0,3.42,1.12,5.9,2.74,8.93a2.88,2.88,0,0,1-2.81,1.6c-1.57,0-2.5-.77-3.55-2.51a1,1,0,0,0-.55-.14c-.69,0-1.12.53-1.12,1.65,0,2.72,2.41,5,5.89,5a8.34,8.34,0,0,0,2.91-.53c-1.38,3.44-2.91,4.16-5,3.65a1.34,1.34,0,0,0-.69,1.24C3.15,28.9,4.34,30,6.79,30c3.53,0,6.29-2.22,7.36-7a.53.53,0,0,1,.41-.21A.54.54,0,0,1,15,23c1.07,4.73,3.83,7,7.36,7C24.78,30,26,28.9,26,27.75a1.34,1.34,0,0,0-.69-1.24c-2,.5-3.57-.21-5-3.65a8.33,8.33,0,0,0,2.91.53c3.48,0,5.89-2.25,5.89-5,0-1.12-.43-1.65-1.12-1.65Z"/></g></g></g></svg>