<svg xmlns="http://www.w3.org/2000/svg" xmlns:xlink="http://www.w3.org/1999/xlink" width="326.13" height="30.18" viewBox="0 0 326.13 30.18"><defs><style>.cls-1{fill:#fff;}.cls-2{mask:url(#mask);}</style><mask id="mask" x="-88.82" y="-47.37" width="728" height="90" maskUnits="userSpaceOnUse"><rect class="cls-1" x="-88.82" y="-47.37" width="728" height="90"/></mask></defs><title>txt23</title><g id="Layer_2" data-name="Layer 2"><g class="cls-2"><g id="Layer_5" data-name="Layer 5"><path class="cls-1" d="M5.61,7.38v3.69H14v4.62H5.61v3.87h9.15v4.62H0V2.76H15V7.38Z"/><path class="cls-1" d="M31.06,15v9.15H26.44V22.59a5.83,5.83,0,0,1-4.5,1.92c-3.09,0-5.16-1.8-5.16-4.65,0-3.75,3.63-5,7.38-5a14.48,14.48,0,0,1,2,.12c0-1.53-1.23-2.13-2.58-2.13a8.1,8.1,0,0,0-4.41,1.59l-2-3.21a10.91,10.91,0,0,1,7-2.43C28.15,8.79,31.06,11,31.06,15Zm-4.92,2.88H24.46c-1.14,0-2.46.3-2.46,1.44a1.27,1.27,0,0,0,1.44,1.29A2.76,2.76,0,0,0,26.14,17.91Z"/><path class="cls-1" d="M32.63,22.29,34.55,19a8,8,0,0,0,4.29,1.65c.93,0,1.47-.36,1.47-.84,0-.75-1.23-1-2.73-1.56-2.37-.84-4.14-2-4.14-4.41,0-3.12,2.64-5,6.48-5A10.86,10.86,0,0,1,46,10.62l-1.86,3.24a8.47,8.47,0,0,0-3.9-1.26c-1,0-1.44.39-1.44.78,0,.57.81.84,2,1.26C43,15.42,46,16.29,46,19.5s-3.18,5-6.81,5A10,10,0,0,1,32.63,22.29Z"/><path class="cls-1" d="M62.94,9.18l-5.55,14c-.93,2.34-2.34,7.05-7.2,7.05a6.43,6.43,0,0,1-4-1.38L47.88,25a3.19,3.19,0,0,0,1.95.72A2.51,2.51,0,0,0,52.14,24l.24-.51L46.92,9.18h5.46L55,17.7l2.7-8.52Z"/><path class="cls-1" d="M92.2,2.76l-5,21.42H80.44L77.53,12.33,74.71,24.18H68.05l-5-21.42h5.75l2.85,15.06L75,5.1h5.31l3.36,12.81L86.56,2.76Z"/><path class="cls-1" d="M111,10.05c0,4.71-2.82,7.32-8,7.32H99.8v6.81H94.19V2.76h9.15C108.5,2.76,111,6.06,111,10.05Zm-5.58,0a2.55,2.55,0,0,0-2.76-2.76H99.8v5.55h2.91C104.42,12.84,105.44,12.09,105.44,10.05Z"/><path class="cls-1" d="M126.26,9.18h4.68v3.51h-4.68V24.18h-5.19V12.69h-1.89V9.18h1.89V8.79c0-5.49,4.29-6.42,6.21-6.42a9.24,9.24,0,0,1,5.1,1.53l-1.53,3.45a5.06,5.06,0,0,0-2.31-.69,2,2,0,0,0-2.28,2.1Z"/><path class="cls-1" d="M131.7,16.68c0-4.8,2.94-7.89,7.83-7.89s7.86,3,7.86,7.89-2.91,7.89-7.86,7.89S131.67,21.42,131.7,16.68Zm10.53,0c0-2.52-1-3.66-2.7-3.66s-2.7,1.14-2.7,3.66,1,3.66,2.7,3.66S142.23,19.2,142.23,16.68Z"/><path class="cls-1" d="M161.69,9.48l-1.2,4.08a4.88,4.88,0,0,0-2-.45A5.9,5.9,0,0,0,155,14.37v9.81h-5.4v-15h5.19v1.59a6,6,0,0,1,4.26-2A5.17,5.17,0,0,1,161.69,9.48Z"/><path class="cls-1" d="M169.13,16.68c0-4.8,2.94-7.89,7.83-7.89s7.86,3,7.86,7.89-2.91,7.89-7.86,7.89S169.1,21.42,169.13,16.68Zm10.53,0c0-2.52-1-3.66-2.7-3.66s-2.7,1.14-2.7,3.66,1,3.66,2.7,3.66S179.66,19.2,179.66,16.68Z"/><path class="cls-1" d="M202.18,13.92V24.18h-5.43v-9c0-1.17-.3-2.1-1.65-2.1a4.33,4.33,0,0,0-2.61,1V24.18H187v-15H192v1.26a8.89,8.89,0,0,1,5.07-1.65C200.14,8.79,202.18,10.5,202.18,13.92Z"/><path class="cls-1" d="M205,2.76h5.4V24.18H205Z"/><path class="cls-1" d="M227.79,9.18l-5.55,14c-.93,2.34-2.34,7.05-7.2,7.05a6.43,6.43,0,0,1-4-1.38L212.73,25a3.19,3.19,0,0,0,2,.72A2.51,2.51,0,0,0,217,24l.24-.51L211.77,9.18h5.46l2.61,8.52,2.7-8.52Z"/><path class="cls-1" d="M246.24,24.09v3.06h-5.1V24.36a11,11,0,0,1-5.79-2.76l2.4-3.87A8.15,8.15,0,0,0,243,19.89c2.28,0,3.06-1,3.06-2,0-1.47-1.8-1.8-3.45-2.34-3.27-1.08-6.39-2.67-6.39-6.66,0-3.12,2-5.22,4.89-6.09V0h5.1V2.52a11.27,11.27,0,0,1,4.95,2l-2.31,3.72a7.71,7.71,0,0,0-4.29-1.41c-1.71,0-2.94.75-2.94,1.83,0,1.38,1.56,1.95,3.54,2.58,3.54,1.14,6.27,2.73,6.27,6.48C251.46,20.52,249.6,23.1,246.24,24.09Z"/><path class="cls-1" d="M263.35,2.76V24.18h-5.58V9.66L254.5,12l-3.09-3.75,7.53-5.49Z"/><path class="cls-1" d="M265.35,24.18,277.74,2.76h5.82L271.2,24.18Z"/><path class="cls-1" d="M308.32,13.92V24.18h-5.46V15.06c0-1.17-.27-2-1.62-2a4.49,4.49,0,0,0-2.64,1V24.18h-5.46V15.06c0-1.17-.27-2-1.62-2a4.49,4.49,0,0,0-2.64,1V24.18h-5.43v-15h4.95v1.53a9.39,9.39,0,0,1,5.4-1.92,4.39,4.39,0,0,1,4,1.92,9.39,9.39,0,0,1,5.4-1.92A4.76,4.76,0,0,1,308.32,13.92Z"/><path class="cls-1" d="M310.44,16.68c0-4.8,2.94-7.89,7.83-7.89,5,0,7.86,3,7.86,7.89s-2.91,7.89-7.86,7.89S310.41,21.42,310.44,16.68Zm10.53,0c0-2.52-1-3.66-2.7-3.66s-2.7,1.14-2.7,3.66,1,3.66,2.7,3.66S321,19.2,321,16.68Z"/></g></g></g></svg>