<svg xmlns="http://www.w3.org/2000/svg" xmlns:xlink="http://www.w3.org/1999/xlink" width="304.07" height="29.31" viewBox="0 0 304.07 29.31"><defs><style>.cls-1{fill:#fff;}.cls-2{mask:url(#mask);}</style><mask id="mask" x="-88.82" y="-32.96" width="728" height="90" maskUnits="userSpaceOnUse"><rect class="cls-1" x="-88.82" y="-32.96" width="728" height="90"/></mask></defs><title>txt21</title><g id="Layer_2" data-name="Layer 2"><g class="cls-2"><g id="Layer_18" data-name="Layer 18"><path class="cls-1" d="M0,1.17H10.17c3.84,0,6.72,2.22,6.72,5.55A4.76,4.76,0,0,1,14,11.16v0a4.94,4.94,0,0,1,3.87,5.16c0,3.63-2.7,6.24-7.35,6.24H0ZM8.7,9.6c1.89,0,2.73-.87,2.73-2.07,0-1.38-1-2.13-2.73-2.13H5.64V9.6Zm.45,8.76c1.74,0,2.79-1,2.79-2.34s-1-2.31-2.88-2.31H5.64v4.65Z"/><path class="cls-1" d="M35,7.59v15H30.05V21.42a9,9,0,0,1-4.95,1.5c-2.82,0-5-1.59-5-5.13V7.59h5.34v9c0,1.59.69,2.1,1.68,2.1a4.68,4.68,0,0,0,2.61-.87V7.59Z"/><path class="cls-1" d="M36.77,20.7l1.92-3.33A8,8,0,0,0,43,19c.93,0,1.47-.36,1.47-.84,0-.75-1.23-1-2.73-1.56-2.37-.84-4.14-2-4.14-4.41,0-3.12,2.64-5,6.48-5A10.86,10.86,0,0,1,50.15,9l-1.86,3.24A8.47,8.47,0,0,0,44.39,11c-1,0-1.44.39-1.44.78,0,.57.81.84,2,1.26,2.19.78,5.16,1.65,5.16,4.86s-3.18,5-6.81,5A10,10,0,0,1,36.77,20.7Z"/><path class="cls-1" d="M52,3.06a3,3,0,1,1,6,0,3,3,0,1,1-6,0Zm.33,4.53h5.34v15H52.32Z"/><path class="cls-1" d="M75.69,12.33V22.59H70.26v-9c0-1.17-.3-2.1-1.65-2.1a4.33,4.33,0,0,0-2.61,1V22.59H60.54v-15h4.95V8.85A8.89,8.89,0,0,1,70.56,7.2C73.65,7.2,75.69,8.91,75.69,12.33Z"/><path class="cls-1" d="M90.32,17.52l1.92,3.39a11.68,11.68,0,0,1-6.63,2c-5.4,0-7.89-3.78-7.89-7.68A7.76,7.76,0,0,1,85.64,7.2c3.72,0,6.66,2,6.66,5.25,0,2.28-1.23,4.68-5.28,4.68H82.64c.48,1.11,1.5,1.74,3.33,1.74A9,9,0,0,0,90.32,17.52Zm-7.86-3.78H85.7c1.35,0,1.83-.75,1.83-1.32,0-.72-.72-1.26-1.8-1.26A3.45,3.45,0,0,0,82.46,13.74Z"/><path class="cls-1" d="M93.55,20.7l1.92-3.33A8,8,0,0,0,99.76,19c.93,0,1.47-.36,1.47-.84,0-.75-1.23-1-2.73-1.56-2.37-.84-4.14-2-4.14-4.41,0-3.12,2.64-5,6.48-5A10.86,10.86,0,0,1,106.93,9l-1.86,3.24a8.47,8.47,0,0,0-3.9-1.26c-1,0-1.44.39-1.44.78,0,.57.81.84,2,1.26,2.19.78,5.16,1.65,5.16,4.86s-3.18,5-6.81,5A10,10,0,0,1,93.55,20.7Z"/><path class="cls-1" d="M107.86,20.7l1.92-3.33A8,8,0,0,0,114.07,19c.93,0,1.47-.36,1.47-.84,0-.75-1.23-1-2.73-1.56-2.37-.84-4.14-2-4.14-4.41,0-3.12,2.64-5,6.48-5A10.86,10.86,0,0,1,121.24,9l-1.86,3.24a8.47,8.47,0,0,0-3.9-1.26c-1,0-1.44.39-1.44.78,0,.57.81.84,2,1.26,2.19.78,5.16,1.65,5.16,4.86s-3.18,5-6.81,5A10,10,0,0,1,107.86,20.7Z"/><path class="cls-1" d="M130.36,1.17h5.4V22.59h-5.4Z"/><path class="cls-1" d="M138,15.09c0-4.8,2.93-7.89,7.82-7.89s7.86,3,7.86,7.89c0,4.74-2.91,7.89-7.86,7.89S137.92,19.83,138,15.09Zm10.52,0c0-2.52-1-3.66-2.7-3.66s-2.69,1.14-2.69,3.66,1,3.66,2.69,3.66S148.47,17.61,148.47,15.09Z"/><path class="cls-1" d="M155.06,15.09c0-4.8,2.94-7.89,7.83-7.89,5,0,7.86,3,7.86,7.89,0,4.74-2.91,7.89-7.86,7.89S155,19.83,155.06,15.09Zm10.53,0c0-2.52-1-3.66-2.7-3.66s-2.7,1.14-2.7,3.66,1,3.66,2.7,3.66S165.59,17.61,165.59,15.09Z"/><path class="cls-1" d="M182.69,22.59l-4.32-7.14v7.14h-5.43V1.17h5.43V14l4.47-6.39h5.79l-5.07,6.93,5.28,8.07Z"/><path class="cls-1" d="M189.1,20.7,191,17.37A8,8,0,0,0,195.31,19c.93,0,1.47-.36,1.47-.84,0-.75-1.23-1-2.73-1.56-2.37-.84-4.14-2-4.14-4.41,0-3.12,2.64-5,6.48-5A10.86,10.86,0,0,1,202.48,9l-1.86,3.24a8.47,8.47,0,0,0-3.9-1.26c-1,0-1.44.39-1.44.78,0,.57.81.84,2,1.26,2.19.78,5.16,1.65,5.16,4.86s-3.18,5-6.81,5A10,10,0,0,1,189.1,20.7Z"/><path class="cls-1" d="M227.32,14.37c0,5.19-3.09,8.61-8.73,8.61a17.15,17.15,0,0,1-7-1.5V1.17h5.28V8.7a7.19,7.19,0,0,1,4.17-1.32C224.56,7.38,227.32,10.11,227.32,14.37Zm-5.43.42c0-1.71-.54-3.3-2.28-3.3a3.93,3.93,0,0,0-2.73,1.23V18.6a8.35,8.35,0,0,0,1.74.18C220.93,18.78,221.89,17.07,221.89,14.79Z"/><path class="cls-1" d="M241.59,7.89,240.39,12a4.88,4.88,0,0,0-2-.45,5.9,5.9,0,0,0-3.48,1.26v9.81h-5.4v-15h5.19V9.18a6,6,0,0,1,4.26-2A5.17,5.17,0,0,1,241.59,7.89Z"/><path class="cls-1" d="M242.5,3.06a3,3,0,1,1,6,0,3,3,0,1,1-6,0Zm.33,4.53h5.34v15h-5.34Z"/><path class="cls-1" d="M263.87,10a4.92,4.92,0,0,1,.66,2.52c0,3.12-2.61,5.16-7.08,5.16a10.34,10.34,0,0,1-2.22-.21.71.71,0,0,0-.18.51c0,.51.36.84,1.89,1A21.59,21.59,0,0,1,263,20.1,4,4,0,0,1,265.55,24c0,3.66-3.36,5.28-8.28,5.28-4.14,0-7.53-1.38-7.53-4.47A3.39,3.39,0,0,1,252,21.6a3,3,0,0,1-1.2-2.46,3.38,3.38,0,0,1,1.59-2.85,4.43,4.43,0,0,1-1.83-3.69c0-3.27,2.76-5.4,7-5.4a9.36,9.36,0,0,1,3.57.63,10.59,10.59,0,0,0,2.76-2.19l2.31,2.46A7.5,7.5,0,0,1,263.87,10Zm-6.42,13c-.75-.06-1.32-.09-1.77-.15-.72.36-1.2.84-1.2,1.44,0,.84.84,1.41,3.09,1.41,1.65,0,3.09-.36,3.09-1.41S259.1,23.16,257.45,23Zm2.46-10.5c0-1.08-.87-1.71-2.37-1.71s-2.34.63-2.34,1.71.84,1.65,2.34,1.65S259.91,13.62,259.91,12.54Z"/><path class="cls-1" d="M282.71,12.33V22.59h-5.43v-9c0-1.17-.3-2.1-1.65-2.1a4.33,4.33,0,0,0-2.61,1V22.59h-5.46V1.17H273V8.52a8.76,8.76,0,0,1,4.56-1.32C280.67,7.2,282.71,8.91,282.71,12.33Z"/><path class="cls-1" d="M297,21.24a8.18,8.18,0,0,1-5.28,1.68c-3.3,0-5.58-2-5.58-5.76V11.1h-1.92V7.59h1.92V2.94h5.34V7.59H296V11.1h-4.5v5.37a1.62,1.62,0,0,0,1.8,1.8,3.85,3.85,0,0,0,2.19-.75Z"/><path class="cls-1" d="M298.46,20.13a2.81,2.81,0,1,1,5.61,0,2.81,2.81,0,1,1-5.61,0Z"/></g></g></g></svg>