<svg xmlns="http://www.w3.org/2000/svg" xmlns:xlink="http://www.w3.org/1999/xlink" width="342.51" height="28.59" viewBox="0 0 342.51 28.59"><defs><style>.cls-1{fill:#fff;}.cls-2{mask:url(#mask);}</style><mask id="mask" x="-87.23" y="-17.96" width="728" height="90" maskUnits="userSpaceOnUse"><rect class="cls-1" x="-87.23" y="-17.96" width="728" height="90"/></mask></defs><title>txt22</title><g id="Layer_2" data-name="Layer 2"><g class="cls-2"><g id="Layer_5" data-name="Layer 5"><path class="cls-1" d="M0,20l2.49-3.87A8.66,8.66,0,0,0,8,18.3c2.4,0,3.27-1,3.27-2,0-1.47-1.89-1.77-3.66-2.34C4.2,12.9.93,11.31.93,7.32.93,3.12,4.32.78,9,.78a13.28,13.28,0,0,1,7.11,2L14.07,6.66A9.59,9.59,0,0,0,9.3,5.22c-1.86,0-2.88.75-2.88,1.83,0,1.38,1.65,1.92,3.75,2.58,3.66,1.14,6.54,2.73,6.54,6.48S13.5,22.92,8,22.92A12,12,0,0,1,0,20Z"/><path class="cls-1" d="M30.75,17.52l1.92,3.39A11.68,11.68,0,0,1,26,23c-5.4,0-7.89-3.78-7.89-7.68A7.76,7.76,0,0,1,26.07,7.2c3.72,0,6.66,2,6.66,5.25,0,2.28-1.23,4.68-5.28,4.68H23.07c.48,1.11,1.5,1.74,3.33,1.74A9,9,0,0,0,30.75,17.52Zm-7.86-3.78h3.24c1.35,0,1.83-.75,1.83-1.32,0-.72-.72-1.26-1.8-1.26A3.45,3.45,0,0,0,22.89,13.74Z"/><path class="cls-1" d="M46.8,21.24a8.18,8.18,0,0,1-5.28,1.68c-3.3,0-5.58-2-5.58-5.76V11.1H34V7.59h1.92V2.94h5.34V7.59h4.5V11.1h-4.5v5.37a1.62,1.62,0,0,0,1.8,1.8,3.85,3.85,0,0,0,2.19-.75Z"/><path class="cls-1" d="M69.84,7.59v15h-5V21.42a9,9,0,0,1-5,1.5c-2.82,0-5-1.59-5-5.13V7.59H60.3v9c0,1.59.69,2.1,1.68,2.1a4.68,4.68,0,0,0,2.61-.87V7.59Z"/><path class="cls-1" d="M88.18,14.88c0,5-3.39,8.1-7.71,8.1a8.38,8.38,0,0,1-2.37-.33v5.64H72.73V7.59h5v.9a6.72,6.72,0,0,1,4-1.29C85,7.2,88.18,10,88.18,14.88Zm-5.43,0c0-1.68-.63-3.45-2.4-3.45a3.78,3.78,0,0,0-2.25.9v6.06a5.45,5.45,0,0,0,1.86.3C81.43,18.72,82.75,17.37,82.75,14.91Z"/><path class="cls-1" d="M112,7.59l-5.55,14c-.93,2.34-2.34,7.05-7.2,7.05a6.43,6.43,0,0,1-4-1.38l1.74-3.78a3.19,3.19,0,0,0,2,.72,2.51,2.51,0,0,0,2.31-1.74l.24-.51L96,7.59h5.46L104,16.11l2.7-8.52Z"/><path class="cls-1" d="M111.93,15.09c0-4.8,2.94-7.89,7.83-7.89s7.86,3,7.86,7.89c0,4.74-2.91,7.89-7.86,7.89S111.9,19.83,111.93,15.09Zm10.53,0c0-2.52-1-3.66-2.7-3.66s-2.7,1.14-2.7,3.66,1,3.66,2.7,3.66S122.46,17.61,122.46,15.09Z"/><path class="cls-1" d="M144.62,7.59v15h-5V21.42a9,9,0,0,1-4.95,1.5c-2.82,0-5-1.59-5-5.13V7.59h5.34v9c0,1.59.69,2.1,1.68,2.1a4.68,4.68,0,0,0,2.61-.87V7.59Z"/><path class="cls-1" d="M159.6,7.89,158.4,12a4.88,4.88,0,0,0-2-.45,5.9,5.9,0,0,0-3.48,1.26v9.81h-5.4v-15h5.19V9.18a6,6,0,0,1,4.26-2A5.17,5.17,0,0,1,159.6,7.89Z"/><path class="cls-1" d="M189.63,7.59l-4.14,15h-5.85L178,14.94l-1.83,7.65h-5.88l-3.87-15h5l2,10,2.34-10h4.92l2,10,2.25-10Z"/><path class="cls-1" d="M202.55,17.52l1.92,3.39a11.68,11.68,0,0,1-6.63,2c-5.4,0-7.89-3.78-7.89-7.68a7.76,7.76,0,0,1,7.92-8.07c3.72,0,6.66,2,6.66,5.25,0,2.28-1.23,4.68-5.28,4.68h-4.38c.48,1.11,1.5,1.74,3.33,1.74A9,9,0,0,0,202.55,17.52Zm-7.86-3.78h3.24c1.35,0,1.83-.75,1.83-1.32,0-.72-.72-1.26-1.8-1.26A3.45,3.45,0,0,0,194.69,13.74Z"/><path class="cls-1" d="M222.49,14.37c0,5.19-3.09,8.61-8.73,8.61a17.15,17.15,0,0,1-7-1.5V1.17h5.28V8.7a7.19,7.19,0,0,1,4.17-1.32C219.73,7.38,222.49,10.11,222.49,14.37Zm-5.43.42c0-1.71-.54-3.3-2.28-3.3a3.93,3.93,0,0,0-2.73,1.23V18.6a8.35,8.35,0,0,0,1.74.18C216.1,18.78,217.06,17.07,217.06,14.79Z"/><path class="cls-1" d="M223.42,20.7l1.92-3.33A8,8,0,0,0,229.63,19c.93,0,1.47-.36,1.47-.84,0-.75-1.22-1-2.72-1.56-2.38-.84-4.15-2-4.15-4.41,0-3.12,2.65-5,6.48-5A10.86,10.86,0,0,1,236.8,9l-1.86,3.24A8.47,8.47,0,0,0,231,11c-1,0-1.44.39-1.44.78,0,.57.82.84,2,1.26,2.19.78,5.16,1.65,5.16,4.86s-3.18,5-6.81,5A10,10,0,0,1,223.42,20.7Z"/><path class="cls-1" d="M238.65,3.06a3,3,0,1,1,6,0,3,3,0,1,1-6,0ZM239,7.59h5.34v15H239Z"/><path class="cls-1" d="M258.77,21.24a8.18,8.18,0,0,1-5.28,1.68c-3.3,0-5.58-2-5.58-5.76V11.1H246V7.59h1.92V2.94h5.34V7.59h4.5V11.1h-4.5v5.37a1.62,1.62,0,0,0,1.8,1.8,3.85,3.85,0,0,0,2.19-.75Z"/><path class="cls-1" d="M271.67,17.52l1.92,3.39A11.68,11.68,0,0,1,267,23c-5.4,0-7.89-3.78-7.89-7.68A7.76,7.76,0,0,1,267,7.2c3.72,0,6.66,2,6.66,5.25,0,2.28-1.23,4.68-5.28,4.68H264c.48,1.11,1.5,1.74,3.33,1.74A9,9,0,0,0,271.67,17.52Zm-7.86-3.78h3.24c1.35,0,1.83-.75,1.83-1.32,0-.72-.72-1.26-1.8-1.26A3.45,3.45,0,0,0,263.81,13.74Z"/><path class="cls-1" d="M304.76,7.59l-4.14,15h-5.85l-1.62-7.65-1.83,7.65h-5.88l-3.87-15h5l2,10,2.34-10h4.92l2,10,2.25-10Z"/><path class="cls-1" d="M305.85,3.06a3,3,0,1,1,6,0,3,3,0,1,1-6,0Zm.33,4.53h5.34v15h-5.34Z"/><path class="cls-1" d="M326,21.24a8.13,8.13,0,0,1-5.27,1.68c-3.3,0-5.58-2-5.58-5.76V11.1H313.2V7.59h1.92V2.94h5.34V7.59H325V11.1h-4.5v5.37a1.62,1.62,0,0,0,1.79,1.8,3.88,3.88,0,0,0,2.2-.75Z"/><path class="cls-1" d="M342.51,12.33V22.59h-5.43v-9c0-1.17-.3-2.1-1.65-2.1a4.33,4.33,0,0,0-2.61,1V22.59h-5.46V1.17h5.46V8.52a8.76,8.76,0,0,1,4.56-1.32C340.47,7.2,342.51,8.91,342.51,12.33Z"/></g></g></g></svg>